<mxfile host="app.diagrams.net" modified="2021-12-22T16:31:15.309Z" agent="5.0 (Windows NT 10.0; Win64; x64) AppleWebKit/537.36 (KHTML, like Gecko) Chrome/93.0.4577.82 Safari/537.36" etag="TduJ4IXi0yTBYM1o_-1E" version="16.0.0" type="github">
  <diagram id="lzh_4C2L1I8v6--wGXSy" name="第 1 页">
    <mxGraphModel dx="1886" dy="810" grid="1" gridSize="10" guides="1" tooltips="1" connect="1" arrows="1" fold="1" page="1" pageScale="1" pageWidth="827" pageHeight="1169" background="#ffffff" math="0" shadow="0">
      <root>
        <mxCell id="0" />
        <mxCell id="1" parent="0" />
        <mxCell id="Is29xfZmHGUfJ5o0wbDR-4" style="rounded=0;orthogonalLoop=1;jettySize=auto;html=1;exitX=0;exitY=1;exitDx=0;exitDy=0;entryX=0.5;entryY=0;entryDx=0;entryDy=0;fontFamily=Comic Sans MS;fontSize=15;endArrow=none;endFill=0;" edge="1" parent="1" source="Is29xfZmHGUfJ5o0wbDR-1" target="Is29xfZmHGUfJ5o0wbDR-2">
          <mxGeometry relative="1" as="geometry" />
        </mxCell>
        <mxCell id="Is29xfZmHGUfJ5o0wbDR-5" style="edgeStyle=none;rounded=0;orthogonalLoop=1;jettySize=auto;html=1;exitX=1;exitY=1;exitDx=0;exitDy=0;entryX=0.5;entryY=0;entryDx=0;entryDy=0;fontFamily=Comic Sans MS;fontSize=15;endArrow=none;endFill=0;" edge="1" parent="1" source="Is29xfZmHGUfJ5o0wbDR-1" target="Is29xfZmHGUfJ5o0wbDR-3">
          <mxGeometry relative="1" as="geometry" />
        </mxCell>
        <mxCell id="Is29xfZmHGUfJ5o0wbDR-1" value="&lt;font style=&quot;font-size: 15px&quot; face=&quot;Comic Sans MS&quot;&gt;1&lt;/font&gt;" style="ellipse;whiteSpace=wrap;html=1;aspect=fixed;fillColor=#f5f5f5;fontColor=#333333;strokeColor=#666666;shadow=1;" vertex="1" parent="1">
          <mxGeometry x="360" y="120" width="40" height="40" as="geometry" />
        </mxCell>
        <mxCell id="Is29xfZmHGUfJ5o0wbDR-10" style="edgeStyle=none;rounded=0;orthogonalLoop=1;jettySize=auto;html=1;exitX=1;exitY=1;exitDx=0;exitDy=0;entryX=0.5;entryY=0;entryDx=0;entryDy=0;fontFamily=Comic Sans MS;fontSize=15;endArrow=none;endFill=0;" edge="1" parent="1" source="Is29xfZmHGUfJ5o0wbDR-2" target="Is29xfZmHGUfJ5o0wbDR-6">
          <mxGeometry relative="1" as="geometry" />
        </mxCell>
        <mxCell id="Is29xfZmHGUfJ5o0wbDR-2" value="&lt;font style=&quot;font-size: 15px&quot; face=&quot;Comic Sans MS&quot;&gt;2&lt;/font&gt;" style="ellipse;whiteSpace=wrap;html=1;aspect=fixed;fillColor=#f5f5f5;fontColor=#333333;strokeColor=#666666;shadow=1;" vertex="1" parent="1">
          <mxGeometry x="320" y="200" width="40" height="40" as="geometry" />
        </mxCell>
        <mxCell id="Is29xfZmHGUfJ5o0wbDR-9" style="edgeStyle=none;rounded=0;orthogonalLoop=1;jettySize=auto;html=1;exitX=1;exitY=1;exitDx=0;exitDy=0;entryX=0.5;entryY=0;entryDx=0;entryDy=0;fontFamily=Comic Sans MS;fontSize=15;endArrow=none;endFill=0;" edge="1" parent="1" source="Is29xfZmHGUfJ5o0wbDR-3" target="Is29xfZmHGUfJ5o0wbDR-7">
          <mxGeometry relative="1" as="geometry" />
        </mxCell>
        <mxCell id="Is29xfZmHGUfJ5o0wbDR-3" value="&lt;font style=&quot;font-size: 15px&quot; face=&quot;Comic Sans MS&quot;&gt;3&lt;/font&gt;" style="ellipse;whiteSpace=wrap;html=1;aspect=fixed;fillColor=#f5f5f5;fontColor=#333333;strokeColor=#666666;shadow=1;" vertex="1" parent="1">
          <mxGeometry x="400" y="200" width="40" height="40" as="geometry" />
        </mxCell>
        <mxCell id="Is29xfZmHGUfJ5o0wbDR-6" value="&lt;font style=&quot;font-size: 15px&quot; face=&quot;Comic Sans MS&quot;&gt;5&lt;/font&gt;" style="ellipse;whiteSpace=wrap;html=1;aspect=fixed;fillColor=#f5f5f5;fontColor=#333333;strokeColor=#666666;shadow=1;" vertex="1" parent="1">
          <mxGeometry x="360" y="280" width="40" height="40" as="geometry" />
        </mxCell>
        <mxCell id="Is29xfZmHGUfJ5o0wbDR-7" value="&lt;font style=&quot;font-size: 15px&quot; face=&quot;Comic Sans MS&quot;&gt;4&lt;/font&gt;" style="ellipse;whiteSpace=wrap;html=1;aspect=fixed;fillColor=#f5f5f5;fontColor=#333333;strokeColor=#666666;shadow=1;" vertex="1" parent="1">
          <mxGeometry x="440" y="280" width="40" height="40" as="geometry" />
        </mxCell>
        <mxCell id="Is29xfZmHGUfJ5o0wbDR-12" style="edgeStyle=none;rounded=0;orthogonalLoop=1;jettySize=auto;html=1;exitX=1;exitY=1;exitDx=0;exitDy=0;entryX=0.5;entryY=0;entryDx=0;entryDy=0;fontFamily=Comic Sans MS;fontSize=15;endArrow=none;endFill=0;" edge="1" parent="1" source="Is29xfZmHGUfJ5o0wbDR-13" target="Is29xfZmHGUfJ5o0wbDR-17">
          <mxGeometry relative="1" as="geometry" />
        </mxCell>
        <mxCell id="Is29xfZmHGUfJ5o0wbDR-13" value="&lt;font style=&quot;font-size: 15px&quot; face=&quot;Comic Sans MS&quot;&gt;1&lt;/font&gt;" style="ellipse;whiteSpace=wrap;html=1;aspect=fixed;fillColor=#f5f5f5;fontColor=#333333;strokeColor=#666666;shadow=1;" vertex="1" parent="1">
          <mxGeometry x="360" y="400" width="40" height="40" as="geometry" />
        </mxCell>
        <mxCell id="Is29xfZmHGUfJ5o0wbDR-17" value="&lt;font style=&quot;font-size: 15px&quot; face=&quot;Comic Sans MS&quot;&gt;3&lt;/font&gt;" style="ellipse;whiteSpace=wrap;html=1;aspect=fixed;fillColor=#f5f5f5;fontColor=#333333;strokeColor=#666666;shadow=1;" vertex="1" parent="1">
          <mxGeometry x="400" y="480" width="40" height="40" as="geometry" />
        </mxCell>
        <mxCell id="Is29xfZmHGUfJ5o0wbDR-20" value="" style="shape=flexArrow;endArrow=classic;html=1;rounded=0;fontFamily=Comic Sans MS;fontSize=15;" edge="1" parent="1">
          <mxGeometry width="50" height="50" relative="1" as="geometry">
            <mxPoint x="560" y="140" as="sourcePoint" />
            <mxPoint x="500" y="140" as="targetPoint" />
          </mxGeometry>
        </mxCell>
        <mxCell id="Is29xfZmHGUfJ5o0wbDR-21" value="" style="shape=flexArrow;endArrow=classic;html=1;rounded=0;fontFamily=Comic Sans MS;fontSize=15;" edge="1" parent="1">
          <mxGeometry width="50" height="50" relative="1" as="geometry">
            <mxPoint x="560" y="219.5" as="sourcePoint" />
            <mxPoint x="500" y="219.5" as="targetPoint" />
          </mxGeometry>
        </mxCell>
        <mxCell id="Is29xfZmHGUfJ5o0wbDR-22" value="" style="shape=flexArrow;endArrow=classic;html=1;rounded=0;fontFamily=Comic Sans MS;fontSize=15;" edge="1" parent="1">
          <mxGeometry width="50" height="50" relative="1" as="geometry">
            <mxPoint x="560" y="299.5" as="sourcePoint" />
            <mxPoint x="500" y="299.5" as="targetPoint" />
          </mxGeometry>
        </mxCell>
        <mxCell id="Is29xfZmHGUfJ5o0wbDR-23" value="" style="shape=flexArrow;endArrow=classic;html=1;rounded=0;fontFamily=Comic Sans MS;fontSize=15;" edge="1" parent="1">
          <mxGeometry width="50" height="50" relative="1" as="geometry">
            <mxPoint x="520" y="499.5" as="sourcePoint" />
            <mxPoint x="460" y="499.5" as="targetPoint" />
          </mxGeometry>
        </mxCell>
        <mxCell id="Is29xfZmHGUfJ5o0wbDR-24" value="" style="shape=flexArrow;endArrow=classic;html=1;rounded=0;fontFamily=Comic Sans MS;fontSize=15;" edge="1" parent="1">
          <mxGeometry width="50" height="50" relative="1" as="geometry">
            <mxPoint x="520" y="419.5" as="sourcePoint" />
            <mxPoint x="460" y="419.5" as="targetPoint" />
          </mxGeometry>
        </mxCell>
      </root>
    </mxGraphModel>
  </diagram>
</mxfile>
